<svg width="65" height="59" viewBox="0 0 65 59" fill="none" xmlns="http://www.w3.org/2000/svg">
<path d="M56.5038 36.6285H24.0437L24.7684 40.1995H54.4905C56.1959 40.1995 57.4599 41.7954 57.082 43.4714L56.4711 46.1805C58.5407 47.193 59.9678 49.3312 59.9678 51.8055C59.9678 55.2875 57.1421 58.1044 53.6757 58.0541C50.3733 58.0063 47.6575 55.3054 47.5683 51.9781C47.5196 50.1605 48.2421 48.5132 49.4289 47.3415H26.2145C27.3635 48.476 28.0774 50.0563 28.0774 51.8055C28.0774 55.3557 25.1399 58.2145 21.5808 58.0479C18.4206 57.9 15.8504 55.3266 15.6843 52.1426C15.5561 49.6837 16.8399 47.5164 18.7904 46.3858L11.0119 8.05997H3.27375C1.80601 8.05997 0.616211 6.86087 0.616211 5.38167V3.59614C0.616211 2.11694 1.80601 0.917847 3.27375 0.917847H14.6268C15.8893 0.917847 16.9774 1.81296 17.2305 3.05937L18.2454 8.05997H61.7384C63.4438 8.05997 64.7078 9.6559 64.3298 11.3318L59.0953 34.5437C58.8203 35.7631 57.7447 36.6285 56.5038 36.6285ZM45.7943 19.6659H40.4792V15.2021C40.4792 14.2159 39.6861 13.4166 38.7075 13.4166H36.9359C35.9573 13.4166 35.1642 14.2159 35.1642 15.2021V19.6659H29.8491C28.8706 19.6659 28.0774 20.4653 28.0774 21.4514V23.237C28.0774 24.2231 28.8706 25.0225 29.8491 25.0225H35.1642V29.4863C35.1642 30.4725 35.9573 31.2719 36.9359 31.2719H38.7075C39.6861 31.2719 40.4792 30.4725 40.4792 29.4863V25.0225H45.7943C46.7728 25.0225 47.566 24.2231 47.566 23.237V21.4514C47.566 20.4653 46.7728 19.6659 45.7943 19.6659Z" fill="#212121" fill-opacity="0.75"/>
</svg>
