<svg width="33" height="34" viewBox="0 0 33 34" fill="none" xmlns="http://www.w3.org/2000/svg">
<path d="M1.5 8C1.5 4.68629 4.18629 2 7.5 2H25.5C28.8137 2 31.5 4.68629 31.5 8V26C31.5 29.3137 28.8137 32 25.5 32H7.5C4.18629 32 1.5 29.3137 1.5 26V8Z" stroke="#FFFFE3" stroke-width="2.5" stroke-linecap="round" stroke-linejoin="round"/>
<path d="M16.4997 23.6668C20.1816 23.6668 23.1663 20.6821 23.1663 17.0002C23.1663 13.3183 20.1816 10.3335 16.4997 10.3335C12.8178 10.3335 9.83301 13.3183 9.83301 17.0002C9.83301 20.6821 12.8178 23.6668 16.4997 23.6668Z" stroke="#FFFFE3" stroke-width="2.5" stroke-linecap="round" stroke-linejoin="round"/>
<path d="M25.5 8.0329V8" stroke="#FFFFE3" stroke-width="2.5" stroke-linecap="round" stroke-linejoin="round"/>
</svg>
