<svg width="296" height="104" viewBox="0 0 296 104" fill="none" xmlns="http://www.w3.org/2000/svg">
<path d="M0 27.916C0 25.6309 0.625 23.6875 1.875 22.0859C3.14453 20.4844 4.87305 19.1758 7.06055 18.1602C9.24805 17.125 11.7969 16.373 14.707 15.9043C17.6172 15.4355 20.7324 15.2012 24.0527 15.2012C25.6348 15.2012 27.1777 15.2207 28.6816 15.2598C30.1855 15.2793 31.5527 15.3184 32.7832 15.377C34.0332 15.4355 35.1074 15.5039 36.0059 15.582C36.9043 15.6602 37.5586 15.748 37.9688 15.8457C38.3594 15.9434 38.6719 16.0508 38.9062 16.168C39.1406 16.2852 39.3164 16.4219 39.4336 16.5781C39.5508 16.7344 39.6289 16.9199 39.668 17.1348C39.707 17.3301 39.7266 17.5645 39.7266 17.8379C39.7266 18.0723 39.6973 18.3359 39.6387 18.6289C39.5801 18.9023 39.4922 19.166 39.375 19.4199C39.2578 19.6543 39.1113 19.8594 38.9355 20.0352C38.7598 20.2109 38.5449 20.2988 38.291 20.2988C38.1348 20.2988 37.959 20.2305 37.7637 20.0938C37.5879 19.957 37.3242 19.7812 36.9727 19.5664C36.6406 19.3516 36.1816 19.127 35.5957 18.8926C35.0293 18.6582 34.2578 18.4336 33.2812 18.2188C32.3242 18.0039 31.123 17.8281 29.6777 17.6914C28.252 17.5547 26.5234 17.4863 24.4922 17.4863V36.2656H36.6504V38.8438H24.4922V50.2988C24.4922 51.2168 24.6289 52.0078 24.9023 52.6719C25.1758 53.3164 25.5664 53.8535 26.0742 54.2832C26.582 54.7129 27.1875 55.0254 27.8906 55.2207C28.6133 55.416 29.4141 55.5137 30.293 55.5137C31.2891 55.5137 32.2852 55.416 33.2812 55.2207C34.2773 55.0059 35.2148 54.7422 36.0938 54.4297C36.9922 54.1172 37.8027 53.7656 38.5254 53.375C39.2676 52.9844 39.8633 52.6035 40.3125 52.2324L41.4551 53.4922C40.9668 53.8828 40.3125 54.4199 39.4922 55.1035C38.6719 55.7676 37.666 56.4219 36.4746 57.0664C35.3027 57.7109 33.9258 58.2773 32.3438 58.7656C30.7813 59.2344 29.0039 59.4688 27.0117 59.4688C26.3477 59.4688 25.5859 59.4297 24.7266 59.3516C23.8867 59.293 23.0176 59.166 22.1191 58.9707C21.2207 58.7559 20.332 58.4531 19.4531 58.0625C18.5938 57.6523 17.8223 57.1152 17.1387 56.4512C16.4746 55.7871 15.9277 54.9766 15.498 54.0195C15.0879 53.043 14.8828 51.8809 14.8828 50.5332V38.8438H10.3125V36.2656H14.8828V17.8379C14.2578 17.8965 13.5352 18.0137 12.7148 18.1895C11.9141 18.3457 11.084 18.5801 10.2246 18.8926C9.38477 19.1855 8.55469 19.5371 7.73438 19.9473C6.91406 20.3574 6.18164 20.8359 5.53711 21.3828C4.89258 21.9297 4.36523 22.5449 3.95508 23.2285C3.56445 23.8926 3.36914 24.6152 3.36914 25.3965C3.36914 26.0215 3.44727 26.5195 3.60352 26.8906C3.7793 27.2617 3.97461 27.5449 4.18945 27.7402C4.4043 27.916 4.61914 28.0332 4.83398 28.0918C5.06836 28.1309 5.23438 28.1504 5.33203 28.1504C5.82031 28.1504 6.2207 28.0723 6.5332 27.916C6.8457 27.7402 7.12891 27.5645 7.38281 27.3887C7.63672 27.1934 7.87109 27.0176 8.08594 26.8613C8.32031 26.6855 8.58398 26.5977 8.87695 26.5977C9.11133 26.5977 9.35547 26.6562 9.60938 26.7734C9.88281 26.8711 10.127 27.0371 10.3418 27.2715C10.5762 27.5059 10.7715 27.8184 10.9277 28.209C11.084 28.5801 11.1621 29.0391 11.1621 29.5859C11.1621 30.3672 11.0059 31.0508 10.6934 31.6367C10.4004 32.2031 10.0098 32.6719 9.52148 33.043C9.05273 33.4141 8.50586 33.6973 7.88086 33.8926C7.27539 34.0684 6.66992 34.1562 6.06445 34.1562C5.12695 34.1562 4.27734 34 3.51562 33.6875C2.77344 33.3555 2.13867 32.9062 1.61133 32.3398C1.08398 31.7734 0.683594 31.1191 0.410156 30.377C0.136719 29.6152 0 28.7949 0 27.916ZM45.498 33.7461C45.498 33.1797 45.3613 32.6914 45.0879 32.2812C44.834 31.8516 44.3945 31.6367 43.7695 31.6367C43.4375 31.6367 43.1543 31.6953 42.9199 31.8125C42.6855 31.9297 42.4316 32.0957 42.1582 32.3105L41.543 31.5781C41.9922 31.207 42.4902 30.8457 43.0371 30.4941C43.6035 30.123 44.209 29.8008 44.8535 29.5273C45.498 29.2539 46.1914 29.0293 46.9336 28.8535C47.6758 28.6777 48.457 28.5898 49.2773 28.5898C50.1562 28.5898 50.9082 28.7266 51.5332 29C52.1582 29.2734 52.6758 29.6055 53.0859 29.9961C53.5156 30.3672 53.8379 30.7676 54.0527 31.1973C54.2676 31.6074 54.3945 31.959 54.4336 32.252C54.8242 31.7051 55.2832 31.207 55.8105 30.7578C56.3574 30.3086 56.9434 29.9277 57.5684 29.6152C58.2129 29.2832 58.8867 29.0293 59.5898 28.8535C60.3125 28.6777 61.0547 28.5898 61.8164 28.5898C63.3789 28.5898 64.7949 28.9121 66.0645 29.5566C67.334 30.2012 68.418 31.1582 69.3164 32.4277C70.2344 33.6973 70.9375 35.2695 71.4258 37.1445C71.9141 39.0195 72.1582 41.1875 72.1582 43.6484C72.1582 46.5 71.8555 48.9316 71.25 50.9434C70.6641 52.9355 69.8828 54.5664 68.9062 55.8359C67.9492 57.1055 66.8457 58.0332 65.5957 58.6191C64.3652 59.1855 63.1055 59.4688 61.8164 59.4688C60.7422 59.4688 59.7949 59.3613 58.9746 59.1465C58.1738 58.9316 57.4805 58.668 56.8945 58.3555C56.3086 58.043 55.8203 57.7305 55.4297 57.418C55.0391 57.0859 54.7266 56.8125 54.4922 56.5977V70.8945C54.4922 71.1484 54.4531 71.4512 54.375 71.8027C54.2969 72.1543 54.1016 72.4863 53.7891 72.7988C53.4961 73.1309 53.0469 73.4141 52.4414 73.6484C51.8555 73.8828 51.0449 74 50.0098 74C48.9746 74 48.1543 73.873 47.5488 73.6191C46.9629 73.3848 46.5137 73.0918 46.2012 72.7402C45.8887 72.4082 45.6934 72.0664 45.6152 71.7148C45.5371 71.3828 45.498 71.1094 45.498 70.8945V33.7461ZM54.4922 52.4082C54.4922 52.5645 54.5605 52.8379 54.6973 53.2285C54.834 53.6191 55.0488 54.0195 55.3418 54.4297C55.6348 54.8398 56.0059 55.2109 56.4551 55.543C56.9238 55.8555 57.4902 56.0117 58.1543 56.0117C59.0137 56.0117 59.7461 55.6895 60.3516 55.0449C60.957 54.3809 61.4551 53.4922 61.8457 52.3789C62.2363 51.2461 62.5195 49.9375 62.6953 48.4531C62.8711 46.9492 62.959 45.3477 62.959 43.6484C62.959 41.5586 62.8418 39.791 62.6074 38.3457C62.3926 36.9004 62.0703 35.7383 61.6406 34.8594C61.2109 33.9609 60.6934 33.3164 60.0879 32.9258C59.502 32.5156 58.8379 32.3105 58.0957 32.3105C57.666 32.3105 57.2363 32.4375 56.8066 32.6914C56.377 32.9258 55.9863 33.2285 55.6348 33.5996C55.3027 33.9512 55.0293 34.3516 54.8145 34.8008C54.5996 35.25 54.4922 35.6797 54.4922 36.0898V52.4082ZM86.7773 34.1562C87.5 33.1211 88.3203 32.1934 89.2383 31.373C89.6094 31.0215 90.0195 30.6797 90.4688 30.3477C90.9375 30.0156 91.4258 29.7227 91.9336 29.4688C92.4609 29.1953 93.0078 28.9805 93.5742 28.8242C94.1602 28.668 94.7559 28.5898 95.3613 28.5898C96.6699 28.5898 97.8418 28.8438 98.877 29.3516C99.9121 29.8594 100.781 30.709 101.484 31.9004C102.188 33.0918 102.725 34.6738 103.096 36.6465C103.467 38.5996 103.652 41.0312 103.652 43.9414C103.652 46.7734 103.398 49.2344 102.891 51.3242C102.383 53.4141 101.719 55.1914 100.898 56.6562C100.078 58.1211 99.1504 59.3125 98.1152 60.2305C97.0801 61.168 96.0352 61.9004 94.9805 62.4277C93.9258 62.9551 92.9102 63.3164 91.9336 63.5117C90.957 63.7266 90.1172 63.8438 89.4141 63.8633L89.1211 62.6621C90 62.4473 90.7812 62.0469 91.4648 61.4609C92.1484 60.875 92.7246 59.918 93.1934 58.5898C93.6621 57.2422 94.0137 55.4355 94.248 53.1699C94.502 50.9043 94.6289 47.9844 94.6289 44.4102C94.6289 41.9492 94.5117 39.9863 94.2773 38.5215C94.0625 37.0371 93.7695 35.9141 93.3984 35.1523C93.0469 34.3711 92.6367 33.8633 92.168 33.6289C91.7188 33.375 91.2598 33.248 90.791 33.248C90.2246 33.248 89.7266 33.4043 89.2969 33.7168C88.8672 34.0098 88.4863 34.3516 88.1543 34.7422C87.8418 35.1328 87.5684 35.5234 87.334 35.9141C87.1191 36.3047 86.9336 36.5977 86.7773 36.793V56.3633C86.7773 56.6172 86.7383 56.9297 86.6602 57.3008C86.582 57.6523 86.3867 57.9941 86.0742 58.3262C85.7812 58.6387 85.332 58.9023 84.7266 59.1172C84.1406 59.3516 83.3301 59.4688 82.2949 59.4688C81.2598 59.4688 80.4395 59.3418 79.834 59.0879C79.2285 58.8535 78.7695 58.5703 78.457 58.2383C78.1641 57.9062 77.9785 57.5645 77.9004 57.2129C77.8223 56.8613 77.7832 56.5781 77.7832 56.3633V18.5703C77.7832 18.0039 77.6465 17.5156 77.373 17.1055C77.1191 16.6758 76.6797 16.4609 76.0547 16.4609C75.7227 16.4609 75.4297 16.5195 75.1758 16.6367C74.9414 16.7344 74.6875 16.8906 74.4141 17.1055L73.8281 16.4023C74.2773 16.0312 74.7754 15.6699 75.3223 15.3184C75.8691 14.9473 76.4648 14.625 77.1094 14.3516C77.7734 14.0781 78.4766 13.8535 79.2188 13.6777C79.9609 13.502 80.7422 13.4141 81.5625 13.4141C82.832 13.4141 83.8184 13.5898 84.5215 13.9414C85.2246 14.2734 85.7422 14.6934 86.0742 15.2012C86.4062 15.6895 86.6016 16.2168 86.6602 16.7832C86.7383 17.3301 86.7773 17.8184 86.7773 18.248V34.1562ZM117.275 45.5527C117.275 46.1777 117.363 46.8613 117.539 47.6035C117.734 48.3262 118.008 49.0586 118.359 49.8008C118.711 50.543 119.141 51.2559 119.648 51.9395C120.176 52.6035 120.771 53.1992 121.436 53.7266C122.119 54.2539 122.871 54.6738 123.691 54.9863C124.512 55.2988 125.41 55.4551 126.387 55.4551C127.07 55.4551 127.705 55.377 128.291 55.2207C128.877 55.0645 129.424 54.8496 129.932 54.5762C130.439 54.3027 130.928 53.9902 131.396 53.6387C131.865 53.2676 132.334 52.877 132.803 52.4668L133.535 53.1699C133.086 53.7754 132.51 54.4395 131.807 55.1621C131.104 55.8848 130.254 56.5684 129.258 57.2129C128.262 57.8379 127.1 58.3652 125.771 58.7949C124.443 59.2051 122.93 59.4102 121.23 59.4102C119.531 59.4102 117.871 59.1074 116.25 58.502C114.648 57.877 113.223 56.9492 111.973 55.7188C110.723 54.4883 109.717 52.9551 108.955 51.1191C108.213 49.2832 107.842 47.1348 107.842 44.6738C107.842 42.8965 108.066 41.2656 108.516 39.7812C108.965 38.2969 109.57 36.959 110.332 35.7676C111.113 34.5762 112.012 33.5312 113.027 32.6328C114.062 31.7344 115.146 30.9922 116.279 30.4062C117.412 29.8008 118.564 29.3516 119.736 29.0586C120.928 28.7461 122.07 28.5898 123.164 28.5898C124.609 28.5898 125.869 28.7461 126.943 29.0586C128.018 29.3711 128.906 29.791 129.609 30.3184C130.332 30.8457 130.869 31.4609 131.221 32.1641C131.572 32.8477 131.748 33.5703 131.748 34.332C131.748 35.25 131.484 36.0801 130.957 36.8223C130.43 37.5449 129.727 38.1797 128.848 38.7266L117.275 45.5527ZM123.164 39.6055C123.418 39.4492 123.623 39.3027 123.779 39.166C123.955 39.0098 124.092 38.834 124.189 38.6387C124.287 38.4238 124.355 38.1699 124.395 37.877C124.453 37.5645 124.482 37.1836 124.482 36.7344C124.482 36.2461 124.424 35.709 124.307 35.123C124.209 34.5176 124.033 33.9512 123.779 33.4238C123.525 32.8965 123.203 32.457 122.812 32.1055C122.422 31.7539 121.953 31.5781 121.406 31.5781C120.703 31.5781 120.098 31.793 119.59 32.2227C119.102 32.6328 118.691 33.1699 118.359 33.834C118.047 34.498 117.793 35.2598 117.598 36.1191C117.422 36.959 117.285 37.8086 117.188 38.668C117.09 39.5273 117.031 40.3574 117.012 41.1582C116.992 41.9395 116.982 42.6035 116.982 43.1504L123.164 39.6055ZM162.51 56.4219C162.51 56.6758 162.471 56.9785 162.393 57.3301C162.314 57.6816 162.119 58.0137 161.807 58.3262C161.514 58.6387 161.064 58.9023 160.459 59.1172C159.854 59.3516 159.033 59.4688 157.998 59.4688C156.963 59.4688 156.143 59.3418 155.537 59.0879C154.951 58.8535 154.502 58.5703 154.189 58.2383C153.896 57.9062 153.711 57.5645 153.633 57.2129C153.555 56.8613 153.516 56.5781 153.516 56.3633V35.6504C153.516 35.377 153.477 35.1035 153.398 34.8301C153.32 34.5371 153.203 34.2734 153.047 34.0391C152.891 33.8047 152.695 33.6191 152.461 33.4824C152.227 33.3262 151.953 33.248 151.641 33.248C151.113 33.248 150.596 33.4043 150.088 33.7168C149.58 34.0098 149.102 34.3516 148.652 34.7422C148.223 35.1328 147.842 35.5234 147.51 35.9141C147.197 36.3047 146.973 36.5977 146.836 36.793V56.4219C146.836 56.6758 146.797 56.9785 146.719 57.3301C146.641 57.6816 146.445 58.0137 146.133 58.3262C145.84 58.6387 145.391 58.9023 144.785 59.1172C144.199 59.3516 143.389 59.4688 142.354 59.4688C141.318 59.4688 140.498 59.3418 139.893 59.0879C139.307 58.8535 138.857 58.5703 138.545 58.2383C138.232 57.9062 138.037 57.5645 137.959 57.2129C137.881 56.8613 137.842 56.5781 137.842 56.3633V33.7461C137.842 33.1797 137.705 32.6914 137.432 32.2812C137.178 31.8516 136.738 31.6367 136.113 31.6367C135.781 31.6367 135.498 31.6953 135.264 31.8125C135.029 31.9297 134.775 32.0957 134.502 32.3105L133.887 31.5781C134.336 31.207 134.834 30.8457 135.381 30.4941C135.947 30.123 136.553 29.8008 137.197 29.5273C137.842 29.2539 138.535 29.0293 139.277 28.8535C140.02 28.6777 140.801 28.5898 141.621 28.5898C142.891 28.5898 143.877 28.8047 144.58 29.2344C145.283 29.6445 145.801 30.1426 146.133 30.7285C146.465 31.3145 146.66 31.9297 146.719 32.5742C146.797 33.1992 146.836 33.7266 146.836 34.1562C147.754 33.1211 148.74 32.1934 149.795 31.373C150.225 31.0215 150.693 30.6797 151.201 30.3477C151.729 30.0156 152.266 29.7227 152.812 29.4688C153.359 29.1953 153.926 28.9805 154.512 28.8242C155.098 28.668 155.684 28.5898 156.27 28.5898C157.402 28.5898 158.369 28.7949 159.17 29.2051C159.971 29.6152 160.615 30.1133 161.104 30.6992C161.592 31.2656 161.943 31.8711 162.158 32.5156C162.393 33.1406 162.51 33.6875 162.51 34.1562C163.447 33.1211 164.434 32.1934 165.469 31.373C165.898 31.0215 166.367 30.6797 166.875 30.3477C167.383 30.0156 167.91 29.7227 168.457 29.4688C169.023 29.1953 169.59 28.9805 170.156 28.8242C170.742 28.668 171.328 28.5898 171.914 28.5898C173.047 28.5898 174.014 28.8047 174.814 29.2344C175.615 29.6445 176.26 30.1914 176.748 30.875C177.236 31.5586 177.588 32.3301 177.803 33.1895C178.037 34.0488 178.154 34.9082 178.154 35.7676V53.9023C178.154 54.0781 178.164 54.2734 178.184 54.4883C178.203 54.6836 178.252 54.8789 178.33 55.0742C178.408 55.25 178.525 55.3965 178.682 55.5137C178.857 55.6309 179.082 55.6895 179.355 55.6895C179.727 55.6895 180.059 55.5625 180.352 55.3086C180.645 55.0352 180.918 54.7617 181.172 54.4883L181.875 55.1035C181.602 55.5137 181.24 55.9727 180.791 56.4805C180.342 56.9688 179.805 57.4375 179.18 57.8867C178.574 58.3359 177.861 58.707 177.041 59C176.24 59.3125 175.332 59.4688 174.316 59.4688C173.457 59.4688 172.705 59.3516 172.061 59.1172C171.436 58.9023 170.898 58.6094 170.449 58.2383C170.02 57.8477 169.697 57.3984 169.482 56.8906C169.268 56.3633 169.16 55.8066 169.16 55.2207V35.6504C169.16 35.377 169.121 35.1035 169.043 34.8301C168.965 34.5371 168.848 34.2734 168.691 34.0391C168.555 33.8047 168.369 33.6191 168.135 33.4824C167.9 33.3262 167.627 33.248 167.314 33.248C166.787 33.248 166.26 33.4043 165.732 33.7168C165.225 34.0098 164.746 34.3516 164.297 34.7422C163.867 35.1328 163.496 35.5234 163.184 35.9141C162.871 36.3047 162.646 36.5977 162.51 36.793V56.4219ZM193.447 45.5527C193.447 46.1777 193.535 46.8613 193.711 47.6035C193.906 48.3262 194.18 49.0586 194.531 49.8008C194.883 50.543 195.312 51.2559 195.82 51.9395C196.348 52.6035 196.943 53.1992 197.607 53.7266C198.291 54.2539 199.043 54.6738 199.863 54.9863C200.684 55.2988 201.582 55.4551 202.559 55.4551C203.242 55.4551 203.877 55.377 204.463 55.2207C205.049 55.0645 205.596 54.8496 206.104 54.5762C206.611 54.3027 207.1 53.9902 207.568 53.6387C208.037 53.2676 208.506 52.877 208.975 52.4668L209.707 53.1699C209.258 53.7754 208.682 54.4395 207.979 55.1621C207.275 55.8848 206.426 56.5684 205.43 57.2129C204.434 57.8379 203.271 58.3652 201.943 58.7949C200.615 59.2051 199.102 59.4102 197.402 59.4102C195.703 59.4102 194.043 59.1074 192.422 58.502C190.82 57.877 189.395 56.9492 188.145 55.7188C186.895 54.4883 185.889 52.9551 185.127 51.1191C184.385 49.2832 184.014 47.1348 184.014 44.6738C184.014 42.8965 184.238 41.2656 184.688 39.7812C185.137 38.2969 185.742 36.959 186.504 35.7676C187.285 34.5762 188.184 33.5312 189.199 32.6328C190.234 31.7344 191.318 30.9922 192.451 30.4062C193.584 29.8008 194.736 29.3516 195.908 29.0586C197.1 28.7461 198.242 28.5898 199.336 28.5898C200.781 28.5898 202.041 28.7461 203.115 29.0586C204.189 29.3711 205.078 29.791 205.781 30.3184C206.504 30.8457 207.041 31.4609 207.393 32.1641C207.744 32.8477 207.92 33.5703 207.92 34.332C207.92 35.25 207.656 36.0801 207.129 36.8223C206.602 37.5449 205.898 38.1797 205.02 38.7266L193.447 45.5527ZM199.336 39.6055C199.59 39.4492 199.795 39.3027 199.951 39.166C200.127 39.0098 200.264 38.834 200.361 38.6387C200.459 38.4238 200.527 38.1699 200.566 37.877C200.625 37.5645 200.654 37.1836 200.654 36.7344C200.654 36.2461 200.596 35.709 200.479 35.123C200.381 34.5176 200.205 33.9512 199.951 33.4238C199.697 32.8965 199.375 32.457 198.984 32.1055C198.594 31.7539 198.125 31.5781 197.578 31.5781C196.875 31.5781 196.27 31.793 195.762 32.2227C195.273 32.6328 194.863 33.1699 194.531 33.834C194.219 34.498 193.965 35.2598 193.77 36.1191C193.594 36.959 193.457 37.8086 193.359 38.668C193.262 39.5273 193.203 40.3574 193.184 41.1582C193.164 41.9395 193.154 42.6035 193.154 43.1504L199.336 39.6055ZM223.008 34.7715C223.75 33.6387 224.541 32.6133 225.381 31.6953C225.732 31.3047 226.113 30.9238 226.523 30.5527C226.934 30.1816 227.354 29.8496 227.783 29.5566C228.232 29.2637 228.691 29.0293 229.16 28.8535C229.629 28.6777 230.098 28.5898 230.566 28.5898C231.562 28.5898 232.344 28.8926 232.91 29.498C233.477 30.084 233.76 30.9141 233.76 31.9883C233.76 32.6523 233.701 33.2969 233.584 33.9219C233.486 34.5273 233.281 35.2695 232.969 36.1484H232.148C232.031 35.543 231.758 35.0449 231.328 34.6543C230.898 34.2441 230.273 34.0391 229.453 34.0391C228.848 34.0391 228.252 34.1562 227.666 34.3906C227.08 34.6055 226.504 34.8789 225.938 35.2109C225.391 35.543 224.863 35.9043 224.355 36.2949C223.867 36.6855 223.418 37.0566 223.008 37.4082V56.4219C223.008 56.6758 222.969 56.9785 222.891 57.3301C222.812 57.6816 222.617 58.0137 222.305 58.3262C222.012 58.6387 221.562 58.9023 220.957 59.1172C220.371 59.3516 219.561 59.4688 218.525 59.4688C217.49 59.4688 216.67 59.3418 216.064 59.0879C215.479 58.8535 215.029 58.5703 214.717 58.2383C214.404 57.9062 214.209 57.5645 214.131 57.2129C214.053 56.8613 214.014 56.5781 214.014 56.3633V33.7461C214.014 33.1797 213.877 32.6914 213.604 32.2812C213.35 31.8516 212.91 31.6367 212.285 31.6367C211.953 31.6367 211.67 31.6953 211.436 31.8125C211.201 31.9297 210.947 32.0957 210.674 32.3105L210.059 31.5781C210.508 31.207 211.006 30.8457 211.553 30.4941C212.119 30.123 212.725 29.8008 213.369 29.5273C214.014 29.2539 214.707 29.0293 215.449 28.8535C216.191 28.6777 216.973 28.5898 217.793 28.5898C218.633 28.5898 219.346 28.707 219.932 28.9414C220.537 29.1562 221.025 29.4492 221.396 29.8203C221.787 30.1719 222.09 30.5723 222.305 31.0215C222.52 31.4707 222.676 31.9297 222.773 32.3984C222.891 32.8477 222.959 33.2871 222.979 33.7168C222.998 34.127 223.008 34.4785 223.008 34.7715ZM250.107 43.8242C250.107 43.3359 249.951 42.9648 249.639 42.7109C249.326 42.457 248.926 42.3301 248.438 42.3301C247.754 42.3301 247.1 42.4863 246.475 42.7988C245.869 43.1113 245.332 43.5703 244.863 44.1758C244.395 44.7812 244.023 45.5332 243.75 46.4316C243.477 47.3105 243.34 48.3359 243.34 49.5078C243.34 50.6406 243.418 51.5781 243.574 52.3203C243.75 53.0625 243.975 53.6582 244.248 54.1074C244.541 54.5371 244.873 54.8398 245.244 55.0156C245.615 55.1914 246.006 55.2793 246.416 55.2793C246.924 55.2793 247.402 55.1523 247.852 54.8984C248.301 54.625 248.691 54.2832 249.023 53.873C249.355 53.4629 249.619 53.0039 249.814 52.4961C250.01 51.9883 250.107 51.4805 250.107 50.9727V43.8242ZM245.449 30.9922C244.785 30.9922 244.17 31.0703 243.604 31.2266C243.037 31.3828 242.549 31.5781 242.139 31.8125C241.729 32.0469 241.406 32.3105 241.172 32.6035C240.938 32.877 240.82 33.1406 240.82 33.3945C240.82 33.6875 240.967 33.9023 241.26 34.0391C241.572 34.1562 241.914 34.3027 242.285 34.4785C242.656 34.6348 242.988 34.8691 243.281 35.1816C243.594 35.4746 243.75 35.9336 243.75 36.5586C243.75 36.9688 243.662 37.3496 243.486 37.7012C243.33 38.0332 243.105 38.3359 242.812 38.6094C242.539 38.8633 242.207 39.0684 241.816 39.2246C241.445 39.3613 241.055 39.4297 240.645 39.4297C239.551 39.4297 238.662 39.0586 237.979 38.3164C237.314 37.5742 236.982 36.5879 236.982 35.3574C236.982 34.166 237.295 33.1504 237.92 32.3105C238.545 31.4512 239.355 30.748 240.352 30.2012C241.367 29.6543 242.51 29.2539 243.779 29C245.049 28.7266 246.318 28.5898 247.588 28.5898C249.111 28.5898 250.566 28.7559 251.953 29.0879C253.34 29.4199 254.561 29.9473 255.615 30.6699C256.689 31.3926 257.539 32.3105 258.164 33.4238C258.809 34.5371 259.131 35.8848 259.131 37.4668V54.0195C259.131 54.1953 259.141 54.3906 259.16 54.6055C259.18 54.8203 259.229 55.0156 259.307 55.1914C259.385 55.3672 259.502 55.5137 259.658 55.6309C259.814 55.748 260.039 55.8066 260.332 55.8066C260.684 55.8066 261.006 55.6797 261.299 55.4258C261.611 55.1523 261.885 54.8789 262.119 54.6055L262.852 55.2207C262.559 55.6309 262.207 56.0801 261.797 56.5684C261.387 57.0566 260.889 57.5156 260.303 57.9453C259.717 58.375 259.033 58.7363 258.252 59.0293C257.471 59.3223 256.582 59.4688 255.586 59.4688C254.355 59.4688 253.262 59.1074 252.305 58.3848C251.348 57.6426 250.723 56.5098 250.43 54.9863C249.805 55.8262 249.15 56.5293 248.467 57.0957C247.803 57.6621 247.119 58.1211 246.416 58.4727C245.713 58.8242 245 59.0781 244.277 59.2344C243.574 59.3906 242.861 59.4688 242.139 59.4688C241.201 59.4688 240.293 59.3223 239.414 59.0293C238.535 58.7363 237.744 58.2773 237.041 57.6523C236.357 57.0078 235.801 56.1777 235.371 55.1621C234.961 54.1465 234.756 52.9062 234.756 51.4414C234.756 49.6641 235.107 48.209 235.811 47.0762C236.514 45.9434 237.432 44.9961 238.564 44.2344C239.717 43.4531 241.016 42.7891 242.461 42.2422C243.926 41.6953 245.42 41.1191 246.943 40.5137C248.076 40.0645 248.896 39.4004 249.404 38.5215C249.932 37.623 250.195 36.7051 250.195 35.7676C250.195 34.3223 249.766 33.1699 248.906 32.3105C248.066 31.4316 246.914 30.9922 245.449 30.9922Z" fill="#B46B3A"/>
<path d="M87.4541 83.8262C87.4541 86.5801 86.79 88.709 85.4619 90.2129C84.1338 91.707 82.3662 92.4541 80.1592 92.4541C77.8838 92.4541 76.0918 91.6826 74.7832 90.1396C73.4844 88.5869 72.835 86.4824 72.835 83.8262C72.835 81.0918 73.5039 78.9678 74.8418 77.4541C76.1895 75.9404 77.9619 75.1836 80.1592 75.1836C82.3662 75.1836 84.1338 75.9404 85.4619 77.4541C86.79 78.958 87.4541 81.082 87.4541 83.8262ZM84.6123 83.8262C84.6123 81.707 84.2266 80.1348 83.4551 79.1094C82.6836 78.0742 81.585 77.5566 80.1592 77.5566C78.7236 77.5566 77.6152 78.0742 76.834 79.1094C76.0625 80.1348 75.6768 81.707 75.6768 83.8262C75.6768 85.877 76.0625 87.4346 76.834 88.499C77.6152 89.5537 78.7236 90.0811 80.1592 90.0811C81.5752 90.0811 82.6689 89.5635 83.4404 88.5283C84.2217 87.4834 84.6123 85.916 84.6123 83.8262ZM108.855 92V82.5371C108.855 81.7852 108.826 81.0918 108.768 80.457C108.709 79.8125 108.587 79.3096 108.401 78.9482C108.206 78.5576 107.928 78.2695 107.566 78.084C107.205 77.8984 106.717 77.8057 106.102 77.8057C105.535 77.8057 104.925 77.9814 104.271 78.333C103.626 78.6748 102.957 79.1729 102.264 79.8271C102.273 79.9932 102.283 80.1934 102.293 80.4277C102.312 80.6523 102.322 80.9209 102.322 81.2334V92H99.5684V82.5371C99.5684 81.7852 99.5391 81.0918 99.4805 80.457C99.4219 79.8125 99.2998 79.3096 99.1143 78.9482C98.9189 78.5576 98.6406 78.2695 98.2793 78.084C97.918 77.8984 97.4297 77.8057 96.8145 77.8057C96.2188 77.8057 95.5938 77.9912 94.9395 78.3623C94.2852 78.7334 93.6504 79.207 93.0352 79.7832V92H90.2812V75.6377H93.0352V77.4541C93.7578 76.7314 94.4707 76.1748 95.1738 75.7842C95.8867 75.3838 96.668 75.1836 97.5176 75.1836C98.4844 75.1836 99.3389 75.4033 100.081 75.8428C100.833 76.2822 101.404 77.0049 101.795 78.0107C102.625 77.083 103.436 76.3799 104.227 75.9014C105.018 75.4229 105.877 75.1836 106.805 75.1836C107.508 75.1836 108.147 75.2959 108.724 75.5205C109.3 75.7354 109.803 76.0869 110.232 76.5752C110.672 77.0732 111.009 77.6934 111.243 78.4355C111.487 79.1777 111.609 80.1104 111.609 81.2334V92H108.855ZM128.338 92H125.584V82.6836C125.584 81.9316 125.545 81.2334 125.467 80.5889C125.398 79.9346 125.262 79.4121 125.057 79.0215C124.832 78.6113 124.52 78.3086 124.119 78.1133C123.719 77.9082 123.172 77.8057 122.479 77.8057C121.795 77.8057 121.087 77.9912 120.354 78.3623C119.632 78.7236 118.924 79.1973 118.23 79.7832V92H115.477V75.6377H118.23V77.4541C119.051 76.7217 119.861 76.1602 120.662 75.7695C121.463 75.3789 122.308 75.1836 123.196 75.1836C124.808 75.1836 126.067 75.7158 126.976 76.7803C127.884 77.835 128.338 79.3682 128.338 81.3799V92ZM135.018 92H132.264V75.6377H135.018V92ZM135.208 72.8984H132.073V70.042H135.208V72.8984ZM148.201 87.9717V83.4307C147.547 83.4893 146.717 83.5723 145.711 83.6797C144.715 83.7773 143.909 83.9189 143.294 84.1045C142.562 84.3291 141.956 84.6758 141.478 85.1445C140.999 85.6035 140.76 86.248 140.76 87.0781C140.76 88.0156 141.023 88.7236 141.551 89.2021C142.078 89.6807 142.85 89.9199 143.865 89.9199C144.734 89.9199 145.521 89.7344 146.224 89.3633C146.927 88.9824 147.586 88.5186 148.201 87.9717ZM148.201 90.2568C147.977 90.4229 147.674 90.6572 147.293 90.96C146.922 91.2529 146.561 91.4873 146.209 91.6631C145.721 91.917 145.247 92.1123 144.788 92.249C144.339 92.3857 143.704 92.4541 142.884 92.4541C142.21 92.4541 141.57 92.3271 140.965 92.0732C140.359 91.8193 139.827 91.4629 139.368 91.0039C138.929 90.5547 138.577 90.0029 138.313 89.3486C138.05 88.6846 137.918 87.9863 137.918 87.2539C137.918 86.1211 138.157 85.1592 138.636 84.3682C139.114 83.5674 139.871 82.9326 140.906 82.4639C141.824 82.0439 142.908 81.7559 144.158 81.5996C145.408 81.4336 146.756 81.3115 148.201 81.2334V80.7061C148.201 80.0615 148.104 79.5439 147.908 79.1533C147.713 78.7529 147.439 78.4453 147.088 78.2305C146.736 78.0059 146.307 77.8594 145.799 77.791C145.291 77.7129 144.769 77.6738 144.231 77.6738C143.597 77.6738 142.85 77.7715 141.99 77.9668C141.131 78.1523 140.271 78.4258 139.412 78.7871H139.251V75.9893C139.759 75.8428 140.486 75.6816 141.434 75.5059C142.381 75.3301 143.318 75.2422 144.246 75.2422C145.369 75.2422 146.316 75.3301 147.088 75.5059C147.859 75.6816 148.553 75.999 149.168 76.458C149.764 76.9072 150.208 77.4883 150.501 78.2012C150.794 78.9141 150.94 79.7832 150.94 80.8086V92H148.201V90.2568ZM171.302 92.3809C168.694 92.3809 166.668 91.6484 165.223 90.1836C163.787 88.709 163.069 86.6191 163.069 83.9141C163.069 81.248 163.768 79.1289 165.164 77.5566C166.561 75.9746 168.387 75.1836 170.643 75.1836C171.658 75.1836 172.557 75.3301 173.338 75.623C174.119 75.916 174.803 76.375 175.389 77C175.975 77.625 176.424 78.3916 176.736 79.2998C177.049 80.1982 177.205 81.3018 177.205 82.6104V84.1045H165.867C165.867 86.0088 166.346 87.4639 167.303 88.4697C168.26 89.4756 169.583 89.9785 171.272 89.9785C171.878 89.9785 172.469 89.9102 173.045 89.7734C173.631 89.6367 174.158 89.4609 174.627 89.2461C175.125 89.0215 175.545 88.8066 175.887 88.6016C176.229 88.3867 176.512 88.1865 176.736 88.001H176.897V91.0039C176.575 91.1309 176.175 91.292 175.696 91.4873C175.218 91.6729 174.788 91.8193 174.407 91.9268C173.87 92.0732 173.382 92.1855 172.942 92.2637C172.513 92.3418 171.966 92.3809 171.302 92.3809ZM174.524 81.9951C174.505 81.2529 174.417 80.6133 174.261 80.0762C174.104 79.5391 173.88 79.085 173.587 78.7139C173.265 78.3037 172.85 77.9912 172.342 77.7764C171.844 77.5615 171.224 77.4541 170.481 77.4541C169.749 77.4541 169.124 77.5664 168.606 77.791C168.099 78.0059 167.635 78.3232 167.215 78.7432C166.805 79.1729 166.492 79.6514 166.277 80.1787C166.062 80.6963 165.926 81.3018 165.867 81.9951H174.524ZM198.562 92V82.5371C198.562 81.7852 198.533 81.0918 198.475 80.457C198.416 79.8125 198.294 79.3096 198.108 78.9482C197.913 78.5576 197.635 78.2695 197.273 78.084C196.912 77.8984 196.424 77.8057 195.809 77.8057C195.242 77.8057 194.632 77.9814 193.978 78.333C193.333 78.6748 192.664 79.1729 191.971 79.8271C191.98 79.9932 191.99 80.1934 192 80.4277C192.02 80.6523 192.029 80.9209 192.029 81.2334V92H189.275V82.5371C189.275 81.7852 189.246 81.0918 189.188 80.457C189.129 79.8125 189.007 79.3096 188.821 78.9482C188.626 78.5576 188.348 78.2695 187.986 78.084C187.625 77.8984 187.137 77.8057 186.521 77.8057C185.926 77.8057 185.301 77.9912 184.646 78.3623C183.992 78.7334 183.357 79.207 182.742 79.7832V92H179.988V75.6377H182.742V77.4541C183.465 76.7314 184.178 76.1748 184.881 75.7842C185.594 75.3838 186.375 75.1836 187.225 75.1836C188.191 75.1836 189.046 75.4033 189.788 75.8428C190.54 76.2822 191.111 77.0049 191.502 78.0107C192.332 77.083 193.143 76.3799 193.934 75.9014C194.725 75.4229 195.584 75.1836 196.512 75.1836C197.215 75.1836 197.854 75.2959 198.431 75.5205C199.007 75.7354 199.51 76.0869 199.939 76.5752C200.379 77.0732 200.716 77.6934 200.95 78.4355C201.194 79.1777 201.316 80.1104 201.316 81.2334V92H198.562ZM218.909 83.3867C218.909 86.1113 218.255 88.2842 216.946 89.9053C215.647 91.5166 214.002 92.3223 212.01 92.3223C211.199 92.3223 210.481 92.2295 209.856 92.0439C209.231 91.8584 208.592 91.5703 207.938 91.1797V98.0352H205.184V75.6377H207.938V77.3516C208.621 76.7363 209.378 76.2236 210.208 75.8135C211.048 75.3936 211.961 75.1836 212.947 75.1836C214.822 75.1836 216.282 75.9258 217.327 77.4102C218.382 78.8945 218.909 80.8867 218.909 83.3867ZM216.067 83.6943C216.067 81.8291 215.77 80.3838 215.174 79.3584C214.578 78.3232 213.611 77.8057 212.273 77.8057C211.492 77.8057 210.735 77.9814 210.003 78.333C209.28 78.6748 208.592 79.1191 207.938 79.666V88.9385C208.66 89.29 209.275 89.5293 209.783 89.6562C210.301 89.7832 210.892 89.8467 211.556 89.8467C212.981 89.8467 214.09 89.3242 214.881 88.2793C215.672 87.2344 216.067 85.7061 216.067 83.6943ZM235.228 83.8262C235.228 86.5801 234.563 88.709 233.235 90.2129C231.907 91.707 230.14 92.4541 227.933 92.4541C225.657 92.4541 223.865 91.6826 222.557 90.1396C221.258 88.5869 220.608 86.4824 220.608 83.8262C220.608 81.0918 221.277 78.9678 222.615 77.4541C223.963 75.9404 225.735 75.1836 227.933 75.1836C230.14 75.1836 231.907 75.9404 233.235 77.4541C234.563 78.958 235.228 81.082 235.228 83.8262ZM232.386 83.8262C232.386 81.707 232 80.1348 231.229 79.1094C230.457 78.0742 229.358 77.5566 227.933 77.5566C226.497 77.5566 225.389 78.0742 224.607 79.1094C223.836 80.1348 223.45 81.707 223.45 83.8262C223.45 85.877 223.836 87.4346 224.607 88.499C225.389 89.5537 226.497 90.0811 227.933 90.0811C229.349 90.0811 230.442 89.5635 231.214 88.5283C231.995 87.4834 232.386 85.916 232.386 83.8262ZM246.727 78.5967H246.58C246.375 78.5381 246.155 78.5039 245.921 78.4941C245.696 78.4746 245.423 78.4648 245.101 78.4648C244.358 78.4648 243.621 78.626 242.889 78.9482C242.156 79.2705 241.463 79.749 240.809 80.3838V92H238.055V75.6377H240.809V78.0693C241.814 77.1807 242.688 76.5557 243.431 76.1943C244.183 75.8232 244.91 75.6377 245.613 75.6377C245.896 75.6377 246.106 75.6475 246.243 75.667C246.39 75.6768 246.551 75.6963 246.727 75.7256V78.5967ZM251.678 92H248.924V75.6377H251.678V92ZM251.868 72.8984H248.733V70.042H251.868V72.8984ZM268.465 92H265.711V90.1836C264.861 90.9258 264.056 91.4922 263.294 91.8828C262.532 92.2637 261.683 92.4541 260.745 92.4541C260.032 92.4541 259.358 92.3369 258.724 92.1025C258.099 91.8682 257.552 91.4971 257.083 90.9893C256.614 90.4814 256.248 89.8418 255.984 89.0703C255.73 88.2988 255.604 87.3613 255.604 86.2578V75.6377H258.357V84.9541C258.357 85.8232 258.387 86.5459 258.445 87.1221C258.514 87.6885 258.66 88.1865 258.885 88.6162C259.109 89.0361 259.412 89.3438 259.793 89.5391C260.184 89.7344 260.74 89.832 261.463 89.832C262.137 89.832 262.854 89.6416 263.616 89.2607C264.378 88.8799 265.076 88.4111 265.711 87.8545V75.6377H268.465V92ZM291.023 92V82.5371C291.023 81.7852 290.994 81.0918 290.936 80.457C290.877 79.8125 290.755 79.3096 290.569 78.9482C290.374 78.5576 290.096 78.2695 289.734 78.084C289.373 77.8984 288.885 77.8057 288.27 77.8057C287.703 77.8057 287.093 77.9814 286.438 78.333C285.794 78.6748 285.125 79.1729 284.432 79.8271C284.441 79.9932 284.451 80.1934 284.461 80.4277C284.48 80.6523 284.49 80.9209 284.49 81.2334V92H281.736V82.5371C281.736 81.7852 281.707 81.0918 281.648 80.457C281.59 79.8125 281.468 79.3096 281.282 78.9482C281.087 78.5576 280.809 78.2695 280.447 78.084C280.086 77.8984 279.598 77.8057 278.982 77.8057C278.387 77.8057 277.762 77.9912 277.107 78.3623C276.453 78.7334 275.818 79.207 275.203 79.7832V92H272.449V75.6377H275.203V77.4541C275.926 76.7314 276.639 76.1748 277.342 75.7842C278.055 75.3838 278.836 75.1836 279.686 75.1836C280.652 75.1836 281.507 75.4033 282.249 75.8428C283.001 76.2822 283.572 77.0049 283.963 78.0107C284.793 77.083 285.604 76.3799 286.395 75.9014C287.186 75.4229 288.045 75.1836 288.973 75.1836C289.676 75.1836 290.315 75.2959 290.892 75.5205C291.468 75.7354 291.971 76.0869 292.4 76.5752C292.84 77.0732 293.177 77.6934 293.411 78.4355C293.655 79.1777 293.777 80.1104 293.777 81.2334V92H291.023Z" fill="#534631"/>
</svg>
